<svg width="61" height="56" fill="none" xmlns="http://www.w3.org/2000/svg"><path d="M2.1 56a1.242 1.242 0 100-2.485A1.242 1.242 0 002.1 56zm0-10.738a1.242 1.242 0 100-2.485 1.242 1.242 0 000 2.485zm0-10.739a1.242 1.242 0 100-2.485 1.242 1.242 0 000 2.485zm0-10.65a1.242 1.242 0 100-2.485 1.242 1.242 0 000 2.485zm0-10.738a1.242 1.242 0 100-2.485 1.242 1.242 0 000 2.485zm0-10.649A1.242 1.242 0 102.1 0a1.242 1.242 0 000 2.485zM59.61 56a1.242 1.242 0 100-2.486 1.242 1.242 0 000 2.485zm0-10.739a1.242 1.242 0 100-2.485 1.242 1.242 0 000 2.485zm0-10.739a1.242 1.242 0 100-2.485 1.242 1.242 0 000 2.485zm0-10.65a1.242 1.242 0 100-2.484 1.242 1.242 0 000 2.484zm0-10.738a1.242 1.242 0 100-2.484 1.242 1.242 0 000 2.484zm0-10.649a1.242 1.242 0 100-2.485 1.242 1.242 0 000 2.485zM48.161 56a1.243 1.243 0 100-2.486 1.243 1.243 0 000 2.485zm0-10.739a1.243 1.243 0 100-2.485 1.243 1.243 0 000 2.485zm0-10.739a1.242 1.242 0 100-2.485 1.242 1.242 0 000 2.485zm0-10.65a1.243 1.243 0 100-2.485 1.243 1.243 0 000 2.485zm0-10.738a1.243 1.243 0 100-2.485 1.243 1.243 0 000 2.485zM48.16 2.485a1.242 1.242 0 100-2.485 1.242 1.242 0 000 2.485zM36.624 56a1.242 1.242 0 100-2.486 1.242 1.242 0 000 2.485zm0-10.739a1.242 1.242 0 100-2.485 1.242 1.242 0 000 2.485zm0-10.739a1.242 1.242 0 100-2.485 1.242 1.242 0 000 2.485zm0-10.65a1.242 1.242 0 100-2.484 1.242 1.242 0 000 2.484zm0-10.738a1.242 1.242 0 100-2.484 1.242 1.242 0 000 2.484zm-.001-10.649a1.242 1.242 0 100-2.485 1.242 1.242 0 000 2.485zM25.087 56a1.243 1.243 0 100-2.486 1.243 1.243 0 000 2.485zm0-10.739a1.243 1.243 0 100-2.485 1.243 1.243 0 000 2.485zm0-10.739a1.242 1.242 0 100-2.485 1.242 1.242 0 000 2.485zm0-10.65a1.243 1.243 0 100-2.485 1.243 1.243 0 000 2.485zm0-10.738a1.243 1.243 0 100-2.485 1.243 1.243 0 000 2.485zm-.001-10.649a1.242 1.242 0 100-2.485 1.242 1.242 0 000 2.485zM13.55 56a1.243 1.243 0 100-2.486 1.243 1.243 0 000 2.485zm0-10.739a1.243 1.243 0 100-2.485 1.243 1.243 0 000 2.485zm0-10.739a1.242 1.242 0 100-2.485 1.242 1.242 0 000 2.485zm0-10.65a1.243 1.243 0 100-2.485 1.243 1.243 0 000 2.485zm0-10.738a1.243 1.243 0 100-2.485 1.243 1.243 0 000 2.485zm0-10.649a1.242 1.242 0 100-2.485 1.242 1.242 0 000 2.485z" fill="#DE6944"/></svg>